<svg xmlns="http://www.w3.org/2000/svg" xmlns:xlink="http://www.w3.org/1999/xlink" contentStyleType="text/css" height="1704px" preserveAspectRatio="none" style="width:2063px;height:1704px;background:#FFFFFF;" version="1.1" viewBox="0 0 2063 1704" width="2063px" zoomAndPan="magnify"><defs/><g><rect fill="#DDDDDD" height="1692.2344" style="stroke:#181818;stroke-width:0.5;" width="346.6948" x="1" y="6"/><text fill="#000000" font-family="sans-serif" font-size="13" font-weight="bold" lengthAdjust="spacing" textLength="176.1411" x="86.2769" y="18.0669">&#1050;&#1083;&#1080;&#1077;&#1085;&#1090;&#1089;&#1082;&#1080;&#1081; &#1080;&#1085;&#1090;&#1077;&#1088;&#1092;&#1077;&#1081;&#1089;</text><rect fill="#DDDDDD" height="1692.2344" style="stroke:#181818;stroke-width:0.5;" width="1035.5742" x="354.5435" y="6"/><text fill="#000000" font-family="sans-serif" font-size="13" font-weight="bold" lengthAdjust="spacing" textLength="218.4229" x="763.1191" y="18.0669">&#1057;&#1040;&#1059; &#1082;&#1083;&#1080;&#1077;&#1085;&#1090;&#1089;&#1082;&#1086;&#1081; &#1073;&#1072;&#1079;&#1086;&#1081; (MVC)</text><rect fill="#DDDDDD" height="1692.2344" style="stroke:#181818;stroke-width:0.5;" width="108.5615" x="1439.3911" y="6"/><text fill="#000000" font-family="sans-serif" font-size="13" font-weight="bold" lengthAdjust="spacing" textLength="96.9097" x="1445.217" y="18.0669">&#1041;&#1072;&#1079;&#1072; &#1076;&#1072;&#1085;&#1085;&#1099;&#1093;</text><rect fill="#DDDDDD" height="1692.2344" style="stroke:#181818;stroke-width:0.5;" width="505.9507" x="1549.9526" y="6"/><text fill="#000000" font-family="sans-serif" font-size="13" font-weight="bold" lengthAdjust="spacing" textLength="217.9912" x="1693.9324" y="18.0669">&#1048;&#1085;&#1090;&#1077;&#1088;&#1092;&#1077;&#1081;&#1089; &#1076;&#1083;&#1103; &#1089;&#1086;&#1090;&#1088;&#1091;&#1076;&#1085;&#1080;&#1082;&#1086;&#1074;</text><line style="stroke:#181818;stroke-width:0.5;stroke-dasharray:5.0,5.0;" x1="34" x2="34" y1="101.4297" y2="1618.9375"/><line style="stroke:#181818;stroke-width:0.5;stroke-dasharray:5.0,5.0;" x1="254.4478" x2="254.4478" y1="101.4297" y2="1618.9375"/><line style="stroke:#181818;stroke-width:0.5;stroke-dasharray:5.0,5.0;" x1="493.5435" x2="493.5435" y1="101.4297" y2="1618.9375"/><line style="stroke:#181818;stroke-width:0.5;stroke-dasharray:5.0,5.0;" x1="769.1606" x2="769.1606" y1="101.4297" y2="1618.9375"/><line style="stroke:#181818;stroke-width:0.5;stroke-dasharray:5.0,5.0;" x1="1028.856" x2="1028.856" y1="101.4297" y2="1618.9375"/><line style="stroke:#181818;stroke-width:0.5;stroke-dasharray:5.0,5.0;" x1="1271.9478" x2="1271.9478" y1="101.4297" y2="1618.9375"/><line style="stroke:#181818;stroke-width:0.5;stroke-dasharray:5.0,5.0;" x1="1493.3911" x2="1493.3911" y1="101.4297" y2="1618.9375"/><line style="stroke:#181818;stroke-width:0.5;stroke-dasharray:5.0,5.0;" x1="1642.9526" x2="1642.9526" y1="101.4297" y2="1618.9375"/><line style="stroke:#181818;stroke-width:0.5;stroke-dasharray:5.0,5.0;" x1="1917.6494" x2="1917.6494" y1="101.4297" y2="1618.9375"/><text fill="#000000" font-family="sans-serif" font-size="14" lengthAdjust="spacing" textLength="53.9082" x="5" y="98.1279">&#1050;&#1083;&#1080;&#1077;&#1085;&#1090;</text><ellipse cx="34.9541" cy="33.6328" fill="#E2E2F0" rx="8" ry="8" style="stroke:#181818;stroke-width:0.5;"/><path d="M34.9541,41.6328 L34.9541,68.6328 M21.9541,49.6328 L47.9541,49.6328 M34.9541,68.6328 L21.9541,83.6328 M34.9541,68.6328 L47.9541,83.6328 " fill="none" style="stroke:#181818;stroke-width:0.5;"/><text fill="#000000" font-family="sans-serif" font-size="14" lengthAdjust="spacing" textLength="53.9082" x="5" y="1630.9326">&#1050;&#1083;&#1080;&#1077;&#1085;&#1090;</text><ellipse cx="34.9541" cy="1642.7344" fill="#E2E2F0" rx="8" ry="8" style="stroke:#181818;stroke-width:0.5;"/><path d="M34.9541,1650.7344 L34.9541,1677.7344 M21.9541,1658.7344 L47.9541,1658.7344 M34.9541,1677.7344 L21.9541,1692.7344 M34.9541,1677.7344 L47.9541,1692.7344 " fill="none" style="stroke:#181818;stroke-width:0.5;"/><text fill="#000000" font-family="sans-serif" font-size="14" lengthAdjust="spacing" textLength="171.2471" x="166.4478" y="98.1279">&#1051;&#1080;&#1095;&#1085;&#1099;&#1081; &#1082;&#1072;&#1073;&#1080;&#1085;&#1077;&#1090; (View)</text><path d="M234.5713,57.1328 L234.5713,81.1328 M234.5713,69.1328 L251.5713,69.1328 " fill="none" style="stroke:#181818;stroke-width:0.5;"/><ellipse cx="263.5713" cy="69.1328" fill="#E2E2F0" rx="12" ry="12" style="stroke:#181818;stroke-width:0.5;"/><text fill="#000000" font-family="sans-serif" font-size="14" lengthAdjust="spacing" textLength="171.2471" x="166.4478" y="1630.9326">&#1051;&#1080;&#1095;&#1085;&#1099;&#1081; &#1082;&#1072;&#1073;&#1080;&#1085;&#1077;&#1090; (View)</text><path d="M234.5713,1638.2344 L234.5713,1662.2344 M234.5713,1650.2344 L251.5713,1650.2344 " fill="none" style="stroke:#181818;stroke-width:0.5;"/><ellipse cx="263.5713" cy="1650.2344" fill="#E2E2F0" rx="12" ry="12" style="stroke:#181818;stroke-width:0.5;"/><text fill="#000000" font-family="sans-serif" font-size="14" lengthAdjust="spacing" textLength="265.6172" x="358.5435" y="98.1279">&#1050;&#1086;&#1085;&#1090;&#1088;&#1086;&#1083;&#1083;&#1077;&#1088; &#1091;&#1087;&#1088;&#1072;&#1074;&#1083;&#1077;&#1085;&#1080;&#1103; &#1082;&#1083;&#1080;&#1077;&#1085;&#1090;&#1072;&#1084;&#1080;</text><ellipse cx="494.3521" cy="69.1328" fill="#E2E2F0" rx="12" ry="12" style="stroke:#181818;stroke-width:0.5;"/><polygon fill="#181818" points="490.3521,57.1328,496.3521,52.1328,494.3521,57.1328,496.3521,62.1328,490.3521,57.1328" style="stroke:#181818;stroke-width:1.0;"/><text fill="#000000" font-family="sans-serif" font-size="14" lengthAdjust="spacing" textLength="265.6172" x="358.5435" y="1630.9326">&#1050;&#1086;&#1085;&#1090;&#1088;&#1086;&#1083;&#1083;&#1077;&#1088; &#1091;&#1087;&#1088;&#1072;&#1074;&#1083;&#1077;&#1085;&#1080;&#1103; &#1082;&#1083;&#1080;&#1077;&#1085;&#1090;&#1072;&#1084;&#1080;</text><ellipse cx="494.3521" cy="1650.2344" fill="#E2E2F0" rx="12" ry="12" style="stroke:#181818;stroke-width:0.5;"/><polygon fill="#181818" points="490.3521,1638.2344,496.3521,1633.2344,494.3521,1638.2344,496.3521,1643.2344,490.3521,1638.2344" style="stroke:#181818;stroke-width:1.0;"/><text fill="#000000" font-family="sans-serif" font-size="14" lengthAdjust="spacing" textLength="253.6953" x="640.1606" y="98.1279">&#1050;&#1086;&#1085;&#1090;&#1088;&#1086;&#1083;&#1083;&#1077;&#1088; &#1091;&#1087;&#1088;&#1072;&#1074;&#1083;&#1077;&#1085;&#1080;&#1103; &#1079;&#1072;&#1082;&#1072;&#1079;&#1072;&#1084;&#1080;</text><ellipse cx="770.0083" cy="69.1328" fill="#E2E2F0" rx="12" ry="12" style="stroke:#181818;stroke-width:0.5;"/><polygon fill="#181818" points="766.0083,57.1328,772.0083,52.1328,770.0083,57.1328,772.0083,62.1328,766.0083,57.1328" style="stroke:#181818;stroke-width:1.0;"/><text fill="#000000" font-family="sans-serif" font-size="14" lengthAdjust="spacing" textLength="253.6953" x="640.1606" y="1630.9326">&#1050;&#1086;&#1085;&#1090;&#1088;&#1086;&#1083;&#1083;&#1077;&#1088; &#1091;&#1087;&#1088;&#1072;&#1074;&#1083;&#1077;&#1085;&#1080;&#1103; &#1079;&#1072;&#1082;&#1072;&#1079;&#1072;&#1084;&#1080;</text><ellipse cx="770.0083" cy="1650.2344" fill="#E2E2F0" rx="12" ry="12" style="stroke:#181818;stroke-width:0.5;"/><polygon fill="#181818" points="766.0083,1638.2344,772.0083,1633.2344,770.0083,1638.2344,772.0083,1643.2344,766.0083,1638.2344" style="stroke:#181818;stroke-width:1.0;"/><text fill="#000000" font-family="sans-serif" font-size="14" lengthAdjust="spacing" textLength="233.0918" x="909.856" y="98.1279">&#1052;&#1086;&#1076;&#1077;&#1083;&#1100; &#1091;&#1087;&#1088;&#1072;&#1074;&#1083;&#1077;&#1085;&#1080;&#1103; &#1082;&#1083;&#1080;&#1077;&#1085;&#1090;&#1072;&#1084;&#1080;</text><ellipse cx="1029.4019" cy="69.1328" fill="#E2E2F0" rx="12" ry="12" style="stroke:#181818;stroke-width:0.5;"/><line style="stroke:#181818;stroke-width:0.5;" x1="1017.4019" x2="1041.4019" y1="83.1328" y2="83.1328"/><text fill="#000000" font-family="sans-serif" font-size="14" lengthAdjust="spacing" textLength="233.0918" x="909.856" y="1630.9326">&#1052;&#1086;&#1076;&#1077;&#1083;&#1100; &#1091;&#1087;&#1088;&#1072;&#1074;&#1083;&#1077;&#1085;&#1080;&#1103; &#1082;&#1083;&#1080;&#1077;&#1085;&#1090;&#1072;&#1084;&#1080;</text><ellipse cx="1029.4019" cy="1650.2344" fill="#E2E2F0" rx="12" ry="12" style="stroke:#181818;stroke-width:0.5;"/><line style="stroke:#181818;stroke-width:0.5;" x1="1017.4019" x2="1041.4019" y1="1664.2344" y2="1664.2344"/><text fill="#000000" font-family="sans-serif" font-size="14" lengthAdjust="spacing" textLength="221.1699" x="1158.9478" y="98.1279">&#1052;&#1086;&#1076;&#1077;&#1083;&#1100; &#1091;&#1087;&#1088;&#1072;&#1074;&#1083;&#1077;&#1085;&#1080;&#1103; &#1079;&#1072;&#1082;&#1072;&#1079;&#1072;&#1084;&#1080;</text><ellipse cx="1272.5327" cy="69.1328" fill="#E2E2F0" rx="12" ry="12" style="stroke:#181818;stroke-width:0.5;"/><line style="stroke:#181818;stroke-width:0.5;" x1="1260.5327" x2="1284.5327" y1="83.1328" y2="83.1328"/><text fill="#000000" font-family="sans-serif" font-size="14" lengthAdjust="spacing" textLength="221.1699" x="1158.9478" y="1630.9326">&#1052;&#1086;&#1076;&#1077;&#1083;&#1100; &#1091;&#1087;&#1088;&#1072;&#1074;&#1083;&#1077;&#1085;&#1080;&#1103; &#1079;&#1072;&#1082;&#1072;&#1079;&#1072;&#1084;&#1080;</text><ellipse cx="1272.5327" cy="1650.2344" fill="#E2E2F0" rx="12" ry="12" style="stroke:#181818;stroke-width:0.5;"/><line style="stroke:#181818;stroke-width:0.5;" x1="1260.5327" x2="1284.5327" y1="1664.2344" y2="1664.2344"/><text fill="#000000" font-family="sans-serif" font-size="14" lengthAdjust="spacing" textLength="94.5615" x="1443.3911" y="98.1279">&#1041;&#1072;&#1079;&#1072; &#1076;&#1072;&#1085;&#1085;&#1099;&#1093;</text><path d="M1475.6719,49.1328 C1475.6719,39.1328 1493.6719,39.1328 1493.6719,39.1328 C1493.6719,39.1328 1511.6719,39.1328 1511.6719,49.1328 L1511.6719,75.1328 C1511.6719,85.1328 1493.6719,85.1328 1493.6719,85.1328 C1493.6719,85.1328 1475.6719,85.1328 1475.6719,75.1328 L1475.6719,49.1328 " fill="#E2E2F0" style="stroke:#181818;stroke-width:1.5;"/><path d="M1475.6719,49.1328 C1475.6719,59.1328 1493.6719,59.1328 1493.6719,59.1328 C1493.6719,59.1328 1511.6719,59.1328 1511.6719,49.1328 " fill="none" style="stroke:#181818;stroke-width:1.5;"/><text fill="#000000" font-family="sans-serif" font-size="14" lengthAdjust="spacing" textLength="94.5615" x="1443.3911" y="1630.9326">&#1041;&#1072;&#1079;&#1072; &#1076;&#1072;&#1085;&#1085;&#1099;&#1093;</text><path d="M1475.6719,1644.2344 C1475.6719,1634.2344 1493.6719,1634.2344 1493.6719,1634.2344 C1493.6719,1634.2344 1511.6719,1634.2344 1511.6719,1644.2344 L1511.6719,1670.2344 C1511.6719,1680.2344 1493.6719,1680.2344 1493.6719,1680.2344 C1493.6719,1680.2344 1475.6719,1680.2344 1475.6719,1670.2344 L1475.6719,1644.2344 " fill="#E2E2F0" style="stroke:#181818;stroke-width:1.5;"/><path d="M1475.6719,1644.2344 C1475.6719,1654.2344 1493.6719,1654.2344 1493.6719,1654.2344 C1493.6719,1654.2344 1511.6719,1654.2344 1511.6719,1644.2344 " fill="none" style="stroke:#181818;stroke-width:1.5;"/><text fill="#000000" font-family="sans-serif" font-size="14" lengthAdjust="spacing" textLength="173.6807" x="1553.9526" y="98.1279">&#1057;&#1086;&#1090;&#1088;&#1091;&#1076;&#1085;&#1080;&#1082; (&#1052;&#1077;&#1085;&#1077;&#1076;&#1078;&#1077;&#1088;)</text><ellipse cx="1643.793" cy="33.6328" fill="#E2E2F0" rx="8" ry="8" style="stroke:#181818;stroke-width:0.5;"/><path d="M1643.793,41.6328 L1643.793,68.6328 M1630.793,49.6328 L1656.793,49.6328 M1643.793,68.6328 L1630.793,83.6328 M1643.793,68.6328 L1656.793,83.6328 " fill="none" style="stroke:#181818;stroke-width:0.5;"/><text fill="#000000" font-family="sans-serif" font-size="14" lengthAdjust="spacing" textLength="173.6807" x="1553.9526" y="1630.9326">&#1057;&#1086;&#1090;&#1088;&#1091;&#1076;&#1085;&#1080;&#1082; (&#1052;&#1077;&#1085;&#1077;&#1076;&#1078;&#1077;&#1088;)</text><ellipse cx="1643.793" cy="1642.7344" fill="#E2E2F0" rx="8" ry="8" style="stroke:#181818;stroke-width:0.5;"/><path d="M1643.793,1650.7344 L1643.793,1677.7344 M1630.793,1658.7344 L1656.793,1658.7344 M1643.793,1677.7344 L1630.793,1692.7344 M1643.793,1677.7344 L1656.793,1692.7344 " fill="none" style="stroke:#181818;stroke-width:0.5;"/><text fill="#000000" font-family="sans-serif" font-size="14" lengthAdjust="spacing" textLength="262.2539" x="1783.6494" y="98.1279">&#1051;&#1080;&#1095;&#1085;&#1099;&#1081; &#1082;&#1072;&#1073;&#1080;&#1085;&#1077;&#1090; &#1089;&#1086;&#1090;&#1088;&#1091;&#1076;&#1085;&#1080;&#1082;&#1072; (View)</text><path d="M1897.2764,57.1328 L1897.2764,81.1328 M1897.2764,69.1328 L1914.2764,69.1328 " fill="none" style="stroke:#181818;stroke-width:0.5;"/><ellipse cx="1926.2764" cy="69.1328" fill="#E2E2F0" rx="12" ry="12" style="stroke:#181818;stroke-width:0.5;"/><text fill="#000000" font-family="sans-serif" font-size="14" lengthAdjust="spacing" textLength="262.2539" x="1783.6494" y="1630.9326">&#1051;&#1080;&#1095;&#1085;&#1099;&#1081; &#1082;&#1072;&#1073;&#1080;&#1085;&#1077;&#1090; &#1089;&#1086;&#1090;&#1088;&#1091;&#1076;&#1085;&#1080;&#1082;&#1072; (View)</text><path d="M1897.2764,1638.2344 L1897.2764,1662.2344 M1897.2764,1650.2344 L1914.2764,1650.2344 " fill="none" style="stroke:#181818;stroke-width:0.5;"/><ellipse cx="1926.2764" cy="1650.2344" fill="#E2E2F0" rx="12" ry="12" style="stroke:#181818;stroke-width:0.5;"/><rect fill="#EEEEEE" height="3" style="stroke:#EEEEEE;stroke-width:1.0;" width="2056.9033" x="0" y="131.9961"/><line style="stroke:#000000;stroke-width:1.0;" x1="0" x2="2056.9033" y1="131.9961" y2="131.9961"/><line style="stroke:#000000;stroke-width:1.0;" x1="0" x2="2056.9033" y1="134.9961" y2="134.9961"/><rect fill="#EEEEEE" height="23.1328" style="stroke:#000000;stroke-width:2.0;" width="181.1973" x="937.853" y="121.4297"/><text fill="#000000" font-family="sans-serif" font-size="13" font-weight="bold" lengthAdjust="spacing" textLength="162.6714" x="943.853" y="137.4966">&#1040;&#1074;&#1090;&#1086;&#1088;&#1080;&#1079;&#1072;&#1094;&#1080;&#1103; &#1082;&#1083;&#1080;&#1077;&#1085;&#1090;&#1072;</text><polygon fill="#181818" points="243.0713,171.6953,253.0713,175.6953,243.0713,179.6953,247.0713,175.6953" style="stroke:#181818;stroke-width:1.0;"/><line style="stroke:#181818;stroke-width:1.0;" x1="34.9541" x2="249.0713" y1="175.6953" y2="175.6953"/><text fill="#000000" font-family="sans-serif" font-size="13" lengthAdjust="spacing" textLength="196.1172" x="41.9541" y="170.6294">&#1040;&#1074;&#1090;&#1086;&#1088;&#1080;&#1079;&#1072;&#1094;&#1080;&#1103; (&#1083;&#1086;&#1075;&#1080;&#1085;/&#1087;&#1072;&#1088;&#1086;&#1083;&#1100;)</text><polygon fill="#181818" points="482.3521,200.8281,492.3521,204.8281,482.3521,208.8281,486.3521,204.8281" style="stroke:#181818;stroke-width:1.0;"/><line style="stroke:#181818;stroke-width:1.0;" x1="255.0713" x2="488.3521" y1="204.8281" y2="204.8281"/><text fill="#000000" font-family="sans-serif" font-size="13" lengthAdjust="spacing" textLength="215.2808" x="262.0713" y="199.7622">&#1055;&#1077;&#1088;&#1077;&#1076;&#1072;&#1095;&#1072; &#1076;&#1072;&#1085;&#1085;&#1099;&#1093; &#1072;&#1074;&#1090;&#1086;&#1088;&#1080;&#1079;&#1072;&#1094;&#1080;&#1080;</text><polygon fill="#181818" points="1017.4019,229.9609,1027.4019,233.9609,1017.4019,237.9609,1021.4019,233.9609" style="stroke:#181818;stroke-width:1.0;"/><line style="stroke:#181818;stroke-width:1.0;" x1="494.3521" x2="1023.4019" y1="233.9609" y2="233.9609"/><text fill="#000000" font-family="sans-serif" font-size="13" lengthAdjust="spacing" textLength="161.4907" x="501.3521" y="228.895">&#1055;&#1088;&#1086;&#1074;&#1077;&#1088;&#1082;&#1072; &#1082;&#1083;&#1080;&#1077;&#1085;&#1090;&#1072; &#1074; &#1041;&#1044;</text><polygon fill="#181818" points="1481.6719,259.0938,1491.6719,263.0938,1481.6719,267.0938,1485.6719,263.0938" style="stroke:#181818;stroke-width:1.0;"/><line style="stroke:#181818;stroke-width:1.0;" x1="1029.4019" x2="1487.6719" y1="263.0938" y2="263.0938"/><text fill="#000000" font-family="sans-serif" font-size="13" lengthAdjust="spacing" textLength="164.9756" x="1036.4019" y="258.0278">&#1047;&#1072;&#1087;&#1088;&#1086;&#1089; &#1076;&#1072;&#1085;&#1085;&#1099;&#1093; &#1082;&#1083;&#1080;&#1077;&#1085;&#1090;&#1072;</text><polygon fill="#181818" points="1040.4019,288.2266,1030.4019,292.2266,1040.4019,296.2266,1036.4019,292.2266" style="stroke:#181818;stroke-width:1.0;"/><line style="stroke:#181818;stroke-width:1.0;stroke-dasharray:2.0,2.0;" x1="1034.4019" x2="1492.6719" y1="292.2266" y2="292.2266"/><text fill="#000000" font-family="sans-serif" font-size="13" lengthAdjust="spacing" textLength="114.1626" x="1046.4019" y="287.1606">&#1044;&#1072;&#1085;&#1085;&#1099;&#1077; &#1082;&#1083;&#1080;&#1077;&#1085;&#1090;&#1072;</text><polygon fill="#181818" points="505.3521,317.3594,495.3521,321.3594,505.3521,325.3594,501.3521,321.3594" style="stroke:#181818;stroke-width:1.0;"/><line style="stroke:#181818;stroke-width:1.0;stroke-dasharray:2.0,2.0;" x1="499.3521" x2="1028.4019" y1="321.3594" y2="321.3594"/><text fill="#000000" font-family="sans-serif" font-size="13" lengthAdjust="spacing" textLength="213.9731" x="511.3521" y="316.2935">&#1042;&#1086;&#1079;&#1074;&#1088;&#1072;&#1090; &#1088;&#1077;&#1079;&#1091;&#1083;&#1100;&#1090;&#1072;&#1090;&#1086;&#1074; &#1087;&#1088;&#1086;&#1074;&#1077;&#1088;&#1082;&#1080;</text><polygon fill="#181818" points="266.0713,346.4922,256.0713,350.4922,266.0713,354.4922,262.0713,350.4922" style="stroke:#181818;stroke-width:1.0;"/><line style="stroke:#181818;stroke-width:1.0;stroke-dasharray:2.0,2.0;" x1="260.0713" x2="493.3521" y1="350.4922" y2="350.4922"/><text fill="#000000" font-family="sans-serif" font-size="13" lengthAdjust="spacing" textLength="194.8921" x="272.0713" y="345.4263">&#1057;&#1090;&#1088;&#1072;&#1085;&#1080;&#1094;&#1072; &#1083;&#1080;&#1095;&#1085;&#1086;&#1075;&#1086; &#1082;&#1072;&#1073;&#1080;&#1085;&#1077;&#1090;&#1072;</text><rect fill="#EEEEEE" height="3" style="stroke:#EEEEEE;stroke-width:1.0;" width="2056.9033" x="0" y="379.0586"/><line style="stroke:#000000;stroke-width:1.0;" x1="0" x2="2056.9033" y1="379.0586" y2="379.0586"/><line style="stroke:#000000;stroke-width:1.0;" x1="0" x2="2056.9033" y1="382.0586" y2="382.0586"/><rect fill="#EEEEEE" height="23.1328" style="stroke:#000000;stroke-width:2.0;" width="200.8242" x="928.0396" y="368.4922"/><text fill="#000000" font-family="sans-serif" font-size="13" font-weight="bold" lengthAdjust="spacing" textLength="182.2983" x="934.0396" y="384.5591">&#1057;&#1086;&#1079;&#1076;&#1072;&#1085;&#1080;&#1077; &#1085;&#1086;&#1074;&#1086;&#1075;&#1086; &#1079;&#1072;&#1082;&#1072;&#1079;&#1072;</text><polygon fill="#181818" points="243.0713,418.7578,253.0713,422.7578,243.0713,426.7578,247.0713,422.7578" style="stroke:#181818;stroke-width:1.0;"/><line style="stroke:#181818;stroke-width:1.0;" x1="34.9541" x2="249.0713" y1="422.7578" y2="422.7578"/><text fill="#000000" font-family="sans-serif" font-size="13" lengthAdjust="spacing" textLength="144.8345" x="41.9541" y="417.6919">&#1057;&#1086;&#1079;&#1076;&#1072;&#1090;&#1100; &#1085;&#1086;&#1074;&#1099;&#1081; &#1079;&#1072;&#1082;&#1072;&#1079;</text><polygon fill="#181818" points="758.0083,447.8906,768.0083,451.8906,758.0083,455.8906,762.0083,451.8906" style="stroke:#181818;stroke-width:1.0;"/><line style="stroke:#181818;stroke-width:1.0;" x1="255.0713" x2="764.0083" y1="451.8906" y2="451.8906"/><text fill="#000000" font-family="sans-serif" font-size="13" lengthAdjust="spacing" textLength="223.3613" x="262.0713" y="446.8247">&#1055;&#1077;&#1088;&#1077;&#1076;&#1072;&#1095;&#1072; &#1076;&#1072;&#1085;&#1085;&#1099;&#1093; &#1085;&#1086;&#1074;&#1086;&#1075;&#1086; &#1079;&#1072;&#1082;&#1072;&#1079;&#1072;</text><polygon fill="#181818" points="1260.5327,477.0234,1270.5327,481.0234,1260.5327,485.0234,1264.5327,481.0234" style="stroke:#181818;stroke-width:1.0;"/><line style="stroke:#181818;stroke-width:1.0;" x1="770.0083" x2="1266.5327" y1="481.0234" y2="481.0234"/><text fill="#000000" font-family="sans-serif" font-size="13" lengthAdjust="spacing" textLength="166.5371" x="777.0083" y="475.9575">&#1057;&#1086;&#1079;&#1076;&#1072;&#1085;&#1080;&#1077; &#1085;&#1086;&#1074;&#1086;&#1075;&#1086; &#1079;&#1072;&#1082;&#1072;&#1079;&#1072;</text><polygon fill="#181818" points="1481.6719,506.1563,1491.6719,510.1563,1481.6719,514.1563,1485.6719,510.1563" style="stroke:#181818;stroke-width:1.0;"/><line style="stroke:#181818;stroke-width:1.0;" x1="1272.5327" x2="1487.6719" y1="510.1563" y2="510.1563"/><text fill="#000000" font-family="sans-serif" font-size="13" lengthAdjust="spacing" textLength="132.0947" x="1279.5327" y="505.0903">&#1057;&#1086;&#1093;&#1088;&#1072;&#1085;&#1077;&#1085;&#1080;&#1077; &#1079;&#1072;&#1082;&#1072;&#1079;&#1072;</text><polygon fill="#181818" points="1283.5327,535.2891,1273.5327,539.2891,1283.5327,543.2891,1279.5327,539.2891" style="stroke:#181818;stroke-width:1.0;"/><line style="stroke:#181818;stroke-width:1.0;stroke-dasharray:2.0,2.0;" x1="1277.5327" x2="1492.6719" y1="539.2891" y2="539.2891"/><text fill="#000000" font-family="sans-serif" font-size="13" lengthAdjust="spacing" textLength="196.2568" x="1289.5327" y="534.2231">&#1055;&#1086;&#1076;&#1090;&#1074;&#1077;&#1088;&#1078;&#1076;&#1077;&#1085;&#1080;&#1077; &#1089;&#1086;&#1093;&#1088;&#1072;&#1085;&#1077;&#1085;&#1080;&#1103;</text><polygon fill="#181818" points="781.0083,564.4219,771.0083,568.4219,781.0083,572.4219,777.0083,568.4219" style="stroke:#181818;stroke-width:1.0;"/><line style="stroke:#181818;stroke-width:1.0;stroke-dasharray:2.0,2.0;" x1="775.0083" x2="1271.5327" y1="568.4219" y2="568.4219"/><text fill="#000000" font-family="sans-serif" font-size="13" lengthAdjust="spacing" textLength="229.4233" x="787.0083" y="563.356">&#1055;&#1086;&#1076;&#1090;&#1074;&#1077;&#1088;&#1078;&#1076;&#1077;&#1085;&#1080;&#1077; &#1089;&#1086;&#1079;&#1076;&#1072;&#1085;&#1080;&#1103; &#1079;&#1072;&#1082;&#1072;&#1079;&#1072;</text><polygon fill="#181818" points="266.0713,593.5547,256.0713,597.5547,266.0713,601.5547,262.0713,597.5547" style="stroke:#181818;stroke-width:1.0;"/><line style="stroke:#181818;stroke-width:1.0;stroke-dasharray:2.0,2.0;" x1="260.0713" x2="769.0083" y1="597.5547" y2="597.5547"/><text fill="#000000" font-family="sans-serif" font-size="13" lengthAdjust="spacing" textLength="250.1802" x="272.0713" y="592.4888">&#1055;&#1086;&#1076;&#1090;&#1074;&#1077;&#1088;&#1078;&#1076;&#1077;&#1085;&#1080;&#1077; &#1082;&#1083;&#1080;&#1077;&#1085;&#1090;&#1091; (ID &#1079;&#1072;&#1082;&#1072;&#1079;&#1072;)</text><rect fill="#EEEEEE" height="3" style="stroke:#EEEEEE;stroke-width:1.0;" width="2056.9033" x="0" y="626.1211"/><line style="stroke:#000000;stroke-width:1.0;" x1="0" x2="2056.9033" y1="626.1211" y2="626.1211"/><line style="stroke:#000000;stroke-width:1.0;" x1="0" x2="2056.9033" y1="629.1211" y2="629.1211"/><rect fill="#EEEEEE" height="23.1328" style="stroke:#000000;stroke-width:2.0;" width="258.0928" x="899.4053" y="615.5547"/><text fill="#000000" font-family="sans-serif" font-size="13" font-weight="bold" lengthAdjust="spacing" textLength="239.5669" x="905.4053" y="631.6216">&#1054;&#1073;&#1088;&#1072;&#1073;&#1086;&#1090;&#1082;&#1072; &#1079;&#1072;&#1082;&#1072;&#1079;&#1072; &#1089;&#1086;&#1090;&#1088;&#1091;&#1076;&#1085;&#1080;&#1082;&#1086;&#1084;</text><polygon fill="#181818" points="1905.7764,665.8203,1915.7764,669.8203,1905.7764,673.8203,1909.7764,669.8203" style="stroke:#181818;stroke-width:1.0;"/><line style="stroke:#181818;stroke-width:1.0;" x1="1643.793" x2="1911.7764" y1="669.8203" y2="669.8203"/><text fill="#000000" font-family="sans-serif" font-size="13" lengthAdjust="spacing" textLength="105.2949" x="1650.793" y="664.7544">&#1042;&#1093;&#1086;&#1076; &#1074; &#1089;&#1080;&#1089;&#1090;&#1077;&#1084;&#1091;</text><polygon fill="#181818" points="781.0083,694.9531,771.0083,698.9531,781.0083,702.9531,777.0083,698.9531" style="stroke:#181818;stroke-width:1.0;"/><line style="stroke:#181818;stroke-width:1.0;" x1="775.0083" x2="1916.7764" y1="698.9531" y2="698.9531"/><text fill="#000000" font-family="sans-serif" font-size="13" lengthAdjust="spacing" textLength="156.7046" x="787.0083" y="693.8872">&#1047;&#1072;&#1087;&#1088;&#1086;&#1089; &#1089;&#1087;&#1080;&#1089;&#1082;&#1072; &#1079;&#1072;&#1082;&#1072;&#1079;&#1086;&#1074;</text><polygon fill="#181818" points="1260.5327,724.0859,1270.5327,728.0859,1260.5327,732.0859,1264.5327,728.0859" style="stroke:#181818;stroke-width:1.0;"/><line style="stroke:#181818;stroke-width:1.0;" x1="770.0083" x2="1266.5327" y1="728.0859" y2="728.0859"/><text fill="#000000" font-family="sans-serif" font-size="13" lengthAdjust="spacing" textLength="187.7573" x="777.0083" y="723.02">&#1055;&#1086;&#1083;&#1091;&#1095;&#1077;&#1085;&#1080;&#1077; &#1076;&#1072;&#1085;&#1085;&#1099;&#1093; &#1079;&#1072;&#1082;&#1072;&#1079;&#1086;&#1074;</text><polygon fill="#181818" points="1481.6719,753.2188,1491.6719,757.2188,1481.6719,761.2188,1485.6719,757.2188" style="stroke:#181818;stroke-width:1.0;"/><line style="stroke:#181818;stroke-width:1.0;" x1="1272.5327" x2="1487.6719" y1="757.2188" y2="757.2188"/><text fill="#000000" font-family="sans-serif" font-size="13" lengthAdjust="spacing" textLength="161.5542" x="1279.5327" y="752.1528">&#1047;&#1072;&#1087;&#1088;&#1086;&#1089; &#1076;&#1072;&#1085;&#1085;&#1099;&#1093; &#1079;&#1072;&#1082;&#1072;&#1079;&#1086;&#1074;</text><polygon fill="#181818" points="1283.5327,782.3516,1273.5327,786.3516,1283.5327,790.3516,1279.5327,786.3516" style="stroke:#181818;stroke-width:1.0;"/><line style="stroke:#181818;stroke-width:1.0;stroke-dasharray:2.0,2.0;" x1="1277.5327" x2="1492.6719" y1="786.3516" y2="786.3516"/><text fill="#000000" font-family="sans-serif" font-size="13" lengthAdjust="spacing" textLength="106.3359" x="1289.5327" y="781.2856">&#1057;&#1087;&#1080;&#1089;&#1086;&#1082; &#1079;&#1072;&#1082;&#1072;&#1079;&#1086;&#1074;</text><polygon fill="#181818" points="781.0083,811.4844,771.0083,815.4844,781.0083,819.4844,777.0083,815.4844" style="stroke:#181818;stroke-width:1.0;"/><line style="stroke:#181818;stroke-width:1.0;stroke-dasharray:2.0,2.0;" x1="775.0083" x2="1271.5327" y1="815.4844" y2="815.4844"/><text fill="#000000" font-family="sans-serif" font-size="13" lengthAdjust="spacing" textLength="175.1763" x="787.0083" y="810.4185">&#1055;&#1077;&#1088;&#1077;&#1076;&#1072;&#1095;&#1072; &#1089;&#1087;&#1080;&#1089;&#1082;&#1072; &#1079;&#1072;&#1082;&#1072;&#1079;&#1086;&#1074;</text><polygon fill="#181818" points="1905.7764,840.6172,1915.7764,844.6172,1905.7764,848.6172,1909.7764,844.6172" style="stroke:#181818;stroke-width:1.0;"/><line style="stroke:#181818;stroke-width:1.0;stroke-dasharray:2.0,2.0;" x1="770.0083" x2="1911.7764" y1="844.6172" y2="844.6172"/><text fill="#000000" font-family="sans-serif" font-size="13" lengthAdjust="spacing" textLength="172.1992" x="777.0083" y="839.5513">&#1055;&#1086;&#1082;&#1072;&#1079;&#1072;&#1090;&#1100; &#1089;&#1087;&#1080;&#1089;&#1086;&#1082; &#1079;&#1072;&#1082;&#1072;&#1079;&#1086;&#1074;</text><polygon fill="#181818" points="1905.7764,869.75,1915.7764,873.75,1905.7764,877.75,1909.7764,873.75" style="stroke:#181818;stroke-width:1.0;"/><line style="stroke:#181818;stroke-width:1.0;" x1="1643.793" x2="1911.7764" y1="873.75" y2="873.75"/><text fill="#000000" font-family="sans-serif" font-size="13" lengthAdjust="spacing" textLength="178.9785" x="1650.793" y="868.6841">&#1054;&#1090;&#1082;&#1088;&#1099;&#1090;&#1100; &#1079;&#1072;&#1082;&#1072;&#1079; (ID &#1079;&#1072;&#1082;&#1072;&#1079;&#1072;)</text><polygon fill="#181818" points="781.0083,898.8828,771.0083,902.8828,781.0083,906.8828,777.0083,902.8828" style="stroke:#181818;stroke-width:1.0;"/><line style="stroke:#181818;stroke-width:1.0;" x1="775.0083" x2="1916.7764" y1="902.8828" y2="902.8828"/><text fill="#000000" font-family="sans-serif" font-size="13" lengthAdjust="spacing" textLength="153.9053" x="787.0083" y="897.8169">&#1047;&#1072;&#1087;&#1088;&#1086;&#1089; &#1076;&#1072;&#1085;&#1085;&#1099;&#1093; &#1079;&#1072;&#1082;&#1072;&#1079;&#1072;</text><polygon fill="#181818" points="1260.5327,928.0156,1270.5327,932.0156,1260.5327,936.0156,1264.5327,932.0156" style="stroke:#181818;stroke-width:1.0;"/><line style="stroke:#181818;stroke-width:1.0;" x1="770.0083" x2="1266.5327" y1="932.0156" y2="932.0156"/><text fill="#000000" font-family="sans-serif" font-size="13" lengthAdjust="spacing" textLength="185.4785" x="777.0083" y="926.9497">&#1055;&#1086;&#1083;&#1091;&#1095;&#1077;&#1085;&#1080;&#1077; &#1076;&#1077;&#1090;&#1072;&#1083;&#1077;&#1081; &#1079;&#1072;&#1082;&#1072;&#1079;&#1072;</text><polygon fill="#181818" points="1481.6719,957.1484,1491.6719,961.1484,1481.6719,965.1484,1485.6719,961.1484" style="stroke:#181818;stroke-width:1.0;"/><line style="stroke:#181818;stroke-width:1.0;" x1="1272.5327" x2="1487.6719" y1="961.1484" y2="961.1484"/><text fill="#000000" font-family="sans-serif" font-size="13" lengthAdjust="spacing" textLength="192.4673" x="1279.5327" y="956.0825">&#1047;&#1072;&#1087;&#1088;&#1086;&#1089; &#1076;&#1072;&#1085;&#1085;&#1099;&#1093; &#1087;&#1086; ID &#1079;&#1072;&#1082;&#1072;&#1079;&#1072;</text><polygon fill="#181818" points="1283.5327,986.2813,1273.5327,990.2813,1283.5327,994.2813,1279.5327,990.2813" style="stroke:#181818;stroke-width:1.0;"/><line style="stroke:#181818;stroke-width:1.0;stroke-dasharray:2.0,2.0;" x1="1277.5327" x2="1492.6719" y1="990.2813" y2="990.2813"/><text fill="#000000" font-family="sans-serif" font-size="13" lengthAdjust="spacing" textLength="103.0923" x="1289.5327" y="985.2153">&#1044;&#1072;&#1085;&#1085;&#1099;&#1077; &#1079;&#1072;&#1082;&#1072;&#1079;&#1072;</text><polygon fill="#181818" points="781.0083,1015.4141,771.0083,1019.4141,781.0083,1023.4141,777.0083,1019.4141" style="stroke:#181818;stroke-width:1.0;"/><line style="stroke:#181818;stroke-width:1.0;stroke-dasharray:2.0,2.0;" x1="775.0083" x2="1271.5327" y1="1019.4141" y2="1019.4141"/><text fill="#000000" font-family="sans-serif" font-size="13" lengthAdjust="spacing" textLength="160.9893" x="787.0083" y="1014.3481">&#1042;&#1086;&#1079;&#1074;&#1088;&#1072;&#1090; &#1076;&#1072;&#1085;&#1085;&#1099;&#1093; &#1079;&#1072;&#1082;&#1072;&#1079;&#1072;</text><polygon fill="#181818" points="1905.7764,1044.5469,1915.7764,1048.5469,1905.7764,1052.5469,1909.7764,1048.5469" style="stroke:#181818;stroke-width:1.0;"/><line style="stroke:#181818;stroke-width:1.0;stroke-dasharray:2.0,2.0;" x1="770.0083" x2="1911.7764" y1="1048.5469" y2="1048.5469"/><text fill="#000000" font-family="sans-serif" font-size="13" lengthAdjust="spacing" textLength="166.7847" x="777.0083" y="1043.481">&#1055;&#1086;&#1082;&#1072;&#1079;&#1072;&#1090;&#1100; &#1076;&#1077;&#1090;&#1072;&#1083;&#1080; &#1079;&#1072;&#1082;&#1072;&#1079;&#1072;</text><rect fill="#EEEEEE" height="3" style="stroke:#EEEEEE;stroke-width:1.0;" width="2056.9033" x="0" y="1077.1133"/><line style="stroke:#000000;stroke-width:1.0;" x1="0" x2="2056.9033" y1="1077.1133" y2="1077.1133"/><line style="stroke:#000000;stroke-width:1.0;" x1="0" x2="2056.9033" y1="1080.1133" y2="1080.1133"/><rect fill="#EEEEEE" height="23.1328" style="stroke:#000000;stroke-width:2.0;" width="216.9092" x="919.9971" y="1066.5469"/><text fill="#000000" font-family="sans-serif" font-size="13" font-weight="bold" lengthAdjust="spacing" textLength="198.3833" x="925.9971" y="1082.6138">&#1048;&#1079;&#1084;&#1077;&#1085;&#1077;&#1085;&#1080;&#1077; &#1089;&#1090;&#1072;&#1090;&#1091;&#1089;&#1072; &#1079;&#1072;&#1082;&#1072;&#1079;&#1072;</text><polygon fill="#181818" points="1905.7764,1116.8125,1915.7764,1120.8125,1905.7764,1124.8125,1909.7764,1120.8125" style="stroke:#181818;stroke-width:1.0;"/><line style="stroke:#181818;stroke-width:1.0;" x1="1643.793" x2="1911.7764" y1="1120.8125" y2="1120.8125"/><text fill="#000000" font-family="sans-serif" font-size="13" lengthAdjust="spacing" textLength="165.5659" x="1650.793" y="1115.7466">&#1048;&#1079;&#1084;&#1077;&#1085;&#1080;&#1090;&#1100; &#1089;&#1090;&#1072;&#1090;&#1091;&#1089; &#1079;&#1072;&#1082;&#1072;&#1079;&#1072;</text><polygon fill="#181818" points="781.0083,1145.9453,771.0083,1149.9453,781.0083,1153.9453,777.0083,1149.9453" style="stroke:#181818;stroke-width:1.0;"/><line style="stroke:#181818;stroke-width:1.0;" x1="775.0083" x2="1916.7764" y1="1149.9453" y2="1149.9453"/><text fill="#000000" font-family="sans-serif" font-size="13" lengthAdjust="spacing" textLength="239.7256" x="787.0083" y="1144.8794">&#1054;&#1073;&#1085;&#1086;&#1074;&#1083;&#1077;&#1085;&#1080;&#1077; &#1089;&#1090;&#1072;&#1090;&#1091;&#1089;&#1072; (&#1042; &#1086;&#1073;&#1088;&#1072;&#1073;&#1086;&#1090;&#1082;&#1077;)</text><polygon fill="#181818" points="1260.5327,1175.0781,1270.5327,1179.0781,1260.5327,1183.0781,1264.5327,1179.0781" style="stroke:#181818;stroke-width:1.0;"/><line style="stroke:#181818;stroke-width:1.0;" x1="770.0083" x2="1266.5327" y1="1179.0781" y2="1179.0781"/><text fill="#000000" font-family="sans-serif" font-size="13" lengthAdjust="spacing" textLength="164.9883" x="777.0083" y="1174.0122">&#1054;&#1073;&#1085;&#1086;&#1074;&#1080;&#1090;&#1100; &#1089;&#1090;&#1072;&#1090;&#1091;&#1089; &#1079;&#1072;&#1082;&#1072;&#1079;&#1072;</text><polygon fill="#181818" points="1481.6719,1204.2109,1491.6719,1208.2109,1481.6719,1212.2109,1485.6719,1208.2109" style="stroke:#181818;stroke-width:1.0;"/><line style="stroke:#181818;stroke-width:1.0;" x1="1272.5327" x2="1487.6719" y1="1208.2109" y2="1208.2109"/><text fill="#000000" font-family="sans-serif" font-size="13" lengthAdjust="spacing" textLength="190.5693" x="1279.5327" y="1203.145">&#1057;&#1086;&#1093;&#1088;&#1072;&#1085;&#1077;&#1085;&#1080;&#1077; &#1085;&#1086;&#1074;&#1086;&#1075;&#1086; &#1089;&#1090;&#1072;&#1090;&#1091;&#1089;&#1072;</text><polygon fill="#181818" points="1283.5327,1233.3438,1273.5327,1237.3438,1283.5327,1241.3438,1279.5327,1237.3438" style="stroke:#181818;stroke-width:1.0;"/><line style="stroke:#181818;stroke-width:1.0;stroke-dasharray:2.0,2.0;" x1="1277.5327" x2="1492.6719" y1="1237.3438" y2="1237.3438"/><text fill="#000000" font-family="sans-serif" font-size="13" lengthAdjust="spacing" textLength="197.1392" x="1289.5327" y="1232.2778">&#1055;&#1086;&#1076;&#1090;&#1074;&#1077;&#1088;&#1078;&#1076;&#1077;&#1085;&#1080;&#1077; &#1086;&#1073;&#1085;&#1086;&#1074;&#1083;&#1077;&#1085;&#1080;&#1103;</text><polygon fill="#181818" points="781.0083,1262.4766,771.0083,1266.4766,781.0083,1270.4766,777.0083,1266.4766" style="stroke:#181818;stroke-width:1.0;"/><line style="stroke:#181818;stroke-width:1.0;stroke-dasharray:2.0,2.0;" x1="775.0083" x2="1271.5327" y1="1266.4766" y2="1266.4766"/><text fill="#000000" font-family="sans-serif" font-size="13" lengthAdjust="spacing" textLength="254.3379" x="787.0083" y="1261.4106">&#1055;&#1086;&#1076;&#1090;&#1074;&#1077;&#1088;&#1078;&#1076;&#1077;&#1085;&#1080;&#1077; &#1086;&#1073;&#1085;&#1086;&#1074;&#1083;&#1077;&#1085;&#1080;&#1103; &#1089;&#1090;&#1072;&#1090;&#1091;&#1089;&#1072;</text><polygon fill="#181818" points="1905.7764,1291.6094,1915.7764,1295.6094,1905.7764,1299.6094,1909.7764,1295.6094" style="stroke:#181818;stroke-width:1.0;"/><line style="stroke:#181818;stroke-width:1.0;stroke-dasharray:2.0,2.0;" x1="770.0083" x2="1911.7764" y1="1295.6094" y2="1295.6094"/><text fill="#000000" font-family="sans-serif" font-size="13" lengthAdjust="spacing" textLength="196.0791" x="777.0083" y="1290.5435">&#1055;&#1086;&#1076;&#1090;&#1074;&#1077;&#1088;&#1078;&#1076;&#1077;&#1085;&#1080;&#1077; &#1089;&#1086;&#1090;&#1088;&#1091;&#1076;&#1085;&#1080;&#1082;&#1091;</text><polygon fill="#181818" points="266.0713,1320.7422,256.0713,1324.7422,266.0713,1328.7422,262.0713,1324.7422" style="stroke:#181818;stroke-width:1.0;"/><line style="stroke:#181818;stroke-width:1.0;stroke-dasharray:2.0,2.0;" x1="260.0713" x2="769.0083" y1="1324.7422" y2="1324.7422"/><text fill="#000000" font-family="sans-serif" font-size="13" lengthAdjust="spacing" textLength="315.3135" x="272.0713" y="1319.6763">&#1059;&#1074;&#1077;&#1076;&#1086;&#1084;&#1083;&#1077;&#1085;&#1080;&#1077; &#1082;&#1083;&#1080;&#1077;&#1085;&#1090;&#1091; &#1086;&#1073; &#1086;&#1073;&#1085;&#1086;&#1074;&#1083;&#1077;&#1085;&#1080;&#1080; &#1089;&#1090;&#1072;&#1090;&#1091;&#1089;&#1072;</text><rect fill="#EEEEEE" height="3" style="stroke:#EEEEEE;stroke-width:1.0;" width="2056.9033" x="0" y="1353.3086"/><line style="stroke:#000000;stroke-width:1.0;" x1="0" x2="2056.9033" y1="1353.3086" y2="1353.3086"/><line style="stroke:#000000;stroke-width:1.0;" x1="0" x2="2056.9033" y1="1356.3086" y2="1356.3086"/><rect fill="#EEEEEE" height="23.1328" style="stroke:#000000;stroke-width:2.0;" width="167.188" x="944.8577" y="1342.7422"/><text fill="#000000" font-family="sans-serif" font-size="13" font-weight="bold" lengthAdjust="spacing" textLength="148.6621" x="950.8577" y="1358.8091">&#1047;&#1072;&#1074;&#1077;&#1088;&#1096;&#1077;&#1085;&#1080;&#1077; &#1079;&#1072;&#1082;&#1072;&#1079;&#1072;</text><polygon fill="#181818" points="1905.7764,1393.0078,1915.7764,1397.0078,1905.7764,1401.0078,1909.7764,1397.0078" style="stroke:#181818;stroke-width:1.0;"/><line style="stroke:#181818;stroke-width:1.0;" x1="1643.793" x2="1911.7764" y1="1397.0078" y2="1397.0078"/><text fill="#000000" font-family="sans-serif" font-size="13" lengthAdjust="spacing" textLength="249.9834" x="1650.793" y="1391.9419">&#1047;&#1072;&#1074;&#1077;&#1088;&#1096;&#1080;&#1090;&#1100; &#1079;&#1072;&#1082;&#1072;&#1079; (&#1089;&#1090;&#1072;&#1090;&#1091;&#1089; &#1042;&#1099;&#1087;&#1086;&#1083;&#1085;&#1077;&#1085;)</text><polygon fill="#181818" points="781.0083,1422.1406,771.0083,1426.1406,781.0083,1430.1406,777.0083,1426.1406" style="stroke:#181818;stroke-width:1.0;"/><line style="stroke:#181818;stroke-width:1.0;" x1="775.0083" x2="1916.7764" y1="1426.1406" y2="1426.1406"/><text fill="#000000" font-family="sans-serif" font-size="13" lengthAdjust="spacing" textLength="266.0112" x="787.0083" y="1421.0747">&#1048;&#1079;&#1084;&#1077;&#1085;&#1077;&#1085;&#1080;&#1077; &#1089;&#1090;&#1072;&#1090;&#1091;&#1089;&#1072; &#1079;&#1072;&#1082;&#1072;&#1079;&#1072; (&#1042;&#1099;&#1087;&#1086;&#1083;&#1085;&#1077;&#1085;)</text><polygon fill="#181818" points="1260.5327,1451.2734,1270.5327,1455.2734,1260.5327,1459.2734,1264.5327,1455.2734" style="stroke:#181818;stroke-width:1.0;"/><line style="stroke:#181818;stroke-width:1.0;" x1="770.0083" x2="1266.5327" y1="1455.2734" y2="1455.2734"/><text fill="#000000" font-family="sans-serif" font-size="13" lengthAdjust="spacing" textLength="189.3696" x="777.0083" y="1450.2075">&#1054;&#1073;&#1085;&#1086;&#1074;&#1083;&#1077;&#1085;&#1080;&#1077; &#1076;&#1072;&#1085;&#1085;&#1099;&#1093; &#1079;&#1072;&#1082;&#1072;&#1079;&#1072;</text><polygon fill="#181818" points="1481.6719,1480.4063,1491.6719,1484.4063,1481.6719,1488.4063,1485.6719,1484.4063" style="stroke:#181818;stroke-width:1.0;"/><line style="stroke:#181818;stroke-width:1.0;" x1="1272.5327" x2="1487.6719" y1="1484.4063" y2="1484.4063"/><text fill="#000000" font-family="sans-serif" font-size="13" lengthAdjust="spacing" textLength="189.2935" x="1279.5327" y="1479.3403">&#1057;&#1086;&#1093;&#1088;&#1072;&#1085;&#1077;&#1085;&#1080;&#1077; &#1089;&#1090;&#1072;&#1090;&#1091;&#1089;&#1072; &#1079;&#1072;&#1082;&#1072;&#1079;&#1072;</text><polygon fill="#181818" points="1283.5327,1509.5391,1273.5327,1513.5391,1283.5327,1517.5391,1279.5327,1513.5391" style="stroke:#181818;stroke-width:1.0;"/><line style="stroke:#181818;stroke-width:1.0;stroke-dasharray:2.0,2.0;" x1="1277.5327" x2="1492.6719" y1="1513.5391" y2="1513.5391"/><text fill="#000000" font-family="sans-serif" font-size="13" lengthAdjust="spacing" textLength="196.2568" x="1289.5327" y="1508.4731">&#1055;&#1086;&#1076;&#1090;&#1074;&#1077;&#1088;&#1078;&#1076;&#1077;&#1085;&#1080;&#1077; &#1089;&#1086;&#1093;&#1088;&#1072;&#1085;&#1077;&#1085;&#1080;&#1103;</text><polygon fill="#181818" points="781.0083,1538.6719,771.0083,1542.6719,781.0083,1546.6719,777.0083,1542.6719" style="stroke:#181818;stroke-width:1.0;"/><line style="stroke:#181818;stroke-width:1.0;stroke-dasharray:2.0,2.0;" x1="775.0083" x2="1271.5327" y1="1542.6719" y2="1542.6719"/><text fill="#000000" font-family="sans-serif" font-size="13" lengthAdjust="spacing" textLength="199.4307" x="787.0083" y="1537.606">&#1055;&#1086;&#1076;&#1090;&#1074;&#1077;&#1088;&#1078;&#1076;&#1077;&#1085;&#1080;&#1077; &#1079;&#1072;&#1074;&#1077;&#1088;&#1096;&#1077;&#1085;&#1080;&#1103;</text><polygon fill="#181818" points="1905.7764,1567.8047,1915.7764,1571.8047,1905.7764,1575.8047,1909.7764,1571.8047" style="stroke:#181818;stroke-width:1.0;"/><line style="stroke:#181818;stroke-width:1.0;stroke-dasharray:2.0,2.0;" x1="770.0083" x2="1911.7764" y1="1571.8047" y2="1571.8047"/><text fill="#000000" font-family="sans-serif" font-size="13" lengthAdjust="spacing" textLength="196.0791" x="777.0083" y="1566.7388">&#1055;&#1086;&#1076;&#1090;&#1074;&#1077;&#1088;&#1078;&#1076;&#1077;&#1085;&#1080;&#1077; &#1089;&#1086;&#1090;&#1088;&#1091;&#1076;&#1085;&#1080;&#1082;&#1091;</text><polygon fill="#181818" points="266.0713,1596.9375,256.0713,1600.9375,266.0713,1604.9375,262.0713,1600.9375" style="stroke:#181818;stroke-width:1.0;"/><line style="stroke:#181818;stroke-width:1.0;stroke-dasharray:2.0,2.0;" x1="260.0713" x2="769.0083" y1="1600.9375" y2="1600.9375"/><text fill="#000000" font-family="sans-serif" font-size="13" lengthAdjust="spacing" textLength="299.3364" x="272.0713" y="1595.8716">&#1059;&#1074;&#1077;&#1076;&#1086;&#1084;&#1083;&#1077;&#1085;&#1080;&#1077; &#1082;&#1083;&#1080;&#1077;&#1085;&#1090;&#1091; &#1086;&#1073; &#1086;&#1082;&#1086;&#1085;&#1095;&#1072;&#1085;&#1080;&#1080; &#1079;&#1072;&#1082;&#1072;&#1079;&#1072;</text><!--SRC=[pLTDJnfH5DtFhtXX1GlJVHEw43PTa2wQk3KWc9XOI11JknEfsaGJMsEYQHkDyGy05Ha1uI-yzuzwxfrXPkvZXWyNJMEYu_3kUUUyS-wTeLGxK2dzKm-rgtlwnHoPfXxW-bdX5_xLFNDelkAZPzDCESMjHgskeijLSK_bTdSgrOPJgkrNoyNw5-3zqguvnSTdX3FGRTqXD60TgVJ6JkLp9aLr6vj-PQLQLgNQWGC8OdEll-i7gfEanWJM0LYVBzE5ZLmcvMpLgerwRPT5Z7dj8VuEyGFcohJq13VQkaitGC4r5m8P7usqotHocxdzlKRjKwN-Aj0-RWoONHJoGxqCF8ZSQT31_0RC8sg6vdmbReMGsmfOSPGA0ILnvZ-yPGg8RPJ3EdESSih5Hh5KtAiaBI30_BgDTMC7Xug680GRntIMOFj87DdKxZHMPBpriKf39SdfuSuJGNh9-TWeRcyl6RYOJTioXHvQ82ARLGXW5nB6E5ANL9kJ67DKDkiuNeBLshiWpM-JgjCe7ki_HEoDdk0sPygSPvnfAS64AGJG7KbcyMt8auUlo6rx6-qw8G315GGSRzbbK3e5Iu_kAjXyvHG4GduTbTVOZ08szioCa10GJdvThTcxNasNwvwzFBgJhVqILFjGY5IJYtGCVNY80wDI4avy9qAIL2zDkUSkRdDld93QePSPzcHifGRSE0VtJC8Jx1B_5zxDBudqLt8O0WZiV-u3U3aDogq0S8CkT3-9YUC3UEvFiPOMuXJ2ShQUclBOFxdUj3fQ47WUyiPWmXbwhZpnaFBgk1S5cBa8DxJ4pmC9jLXpBbGlNKY64y-Pbag_pml0Z1U4MzrXsXqQ9bxpHDsFdMmZ3WLF5oyJV4dHDiT4XneEXQvfqhZK8zDo_3Ko1z7cm_e9LTWKO6QyyNSyP5e8K21On4X2sEOdzxsicyd0lKzpZ26UjCVSi2ybL9mgAVNzu5OB468unBboIyR2mZElKOE2c4Wij2dfhDehcCHZY1_dp_CxD7dZ2PhR8ZzhbPZFiVi8cN8kBo5qhaaHdQwivxQxmUN8VmEOThyt_d5QJRiB4zej177zO8GGSizONz7w_hGS9h58wqk55N94z3BnPeTuY-WiDOgZWrpIMcKo4tkfyXMJEGx4vfGSYpcF335PCIOJXlm3rMCPHc_4Asl04yaOfeYVnPG3UCtlrFGk-otswPUKkMYTEpDGfEMNQBq9VxzWMnF6osgja9v5NH36uS87n7A1dCFgdxygyER2Fe3yDmaSy7VBK_-TJ8w_lm00]--></g></svg>